<?xml version="1.0" encoding="UTF-8"?>
<svg width="172px" height="30px" viewBox="0 0 172 30" version="1.1" xmlns="http://www.w3.org/2000/svg" xmlns:xlink="http://www.w3.org/1999/xlink">
    <!-- Generator: Sketch 50.1 (55044) - http://www.bohemiancoding.com/sketch -->
    <title>logo</title>
    <desc>Created with Sketch.</desc>
    <defs></defs>
    <g id="Page-1" stroke="none" stroke-width="1" fill="none" fill-rule="evenodd">
        <g id="Price-to-Performance-V3" transform="translate(-215.000000, -35.000000)" fill="#FFFFFF">
            <g id="Header" transform="translate(215.000000, 30.000000)">
                <g id="logo" transform="translate(0.000000, 5.000000)">
                    <g id="Layer_1">
                        <g id="XMLID_749_">
                            <g id="XMLID_981_">
                                <g id="XMLID_982_">
                                    <g id="XMLID_44_">
                                        <g id="XMLID_48_">
                                            <path d="M14.6481071,29.0571438 L14.6481071,23.4850091 C20.5967515,23.4850091 25.1699868,17.6393955 22.9005618,11.4177483 C22.0753163,9.12736163 20.218514,7.28137838 17.9147037,6.46094138 C11.6565922,4.20473963 5.77671828,8.78551288 5.77671828,14.6653114 L5.77671828,14.6653114 L0.171926139,14.6653114 C0.171926139,5.26447075 9.31839675,-2.08527738 19.2213424,0.991361375 C23.5538811,2.3245715 26.9924039,5.77724388 28.367813,10.0845381 C31.4624835,19.963967 24.1040447,29.0571438 14.6481071,29.0571438 L14.6481071,29.0571438 Z" id="XMLID_49_"></path>
                                        </g>
                                        <polygon id="XMLID_47_" points="14.6481071 23.519194 9.07770016 23.519194 9.07770016 17.9812443 9.07770016 17.9812443 14.6481071 17.9812443 14.6481071 17.9812443"></polygon>
                                        <polygon id="XMLID_46_" points="9.07770016 27.7923034 4.77954667 27.7923034 4.77954667 27.7923034 4.77954667 23.519194 9.07770016 23.519194"></polygon>
                                        <path d="M4.77954667,23.519194 L1.16909775,23.519194 L1.16909775,23.519194 L1.16909775,19.963967 L1.16909775,19.963967 L4.74516145,19.963967 L4.74516145,19.963967 L4.74516145,23.519194 L4.77954667,23.519194 Z" id="XMLID_45_"></path>
                                    </g>
                                </g>
                            </g>
                            <g id="XMLID_751_" transform="translate(40.230717, 6.495126)">
                                <path d="M11.4158957,2.15364713 C9.76540472,1.02554625 7.70229104,0.444403375 5.29532509,0.444403375 L0.0687704557,0.444403375 L0.0687704557,16.9898829 L5.29532509,16.9898829 C7.70229104,16.9898829 9.76540472,16.3745551 11.4158957,15.1780845 C12.3099116,14.5285719 13.0320014,13.6397651 13.5133946,12.5116643 C13.9947877,11.3835634 14.2698696,10.0845381 14.2698696,8.6145885 C14.2698696,7.14463888 14.029173,5.84561363 13.5133946,4.75169763 C13.0320014,3.62359675 12.3442968,2.73479 11.4158957,2.15364713 L11.4158957,2.15364713 Z M3.12905574,3.21337825 L4.77954667,3.21337825 C6.60196375,3.21337825 8.11491378,3.555227 9.2496263,4.27310938 C10.5218797,5.02517663 11.1751991,6.49512625 11.1751991,8.58040363 C11.1751991,10.7340508 10.5218797,12.2381853 9.2496263,13.0586223 L9.2496263,13.0586223 C8.14929901,13.7765046 6.67073421,14.1525383 4.8139319,14.1525383 L3.16344096,14.1525383 L3.16344096,3.21337825 L3.12905574,3.21337825 Z" id="XMLID_978_"></path>
                                <path d="M17.9490889,0.20510925 C17.4333105,0.20510925 17.0206878,0.376033625 16.6768355,0.717882375 C16.3329832,1.05973113 16.1266719,1.46994963 16.1266719,1.98272275 C16.1266719,2.49549588 16.298598,2.90571438 16.6424503,3.281748 C16.9863026,3.62359675 17.4333105,3.79452113 17.9490889,3.79452113 C18.4648674,3.79452113 18.8774901,3.62359675 19.2557276,3.281748 C19.5995799,2.93989925 19.771506,2.49549588 19.771506,1.98272275 C19.771506,1.46994963 19.5995799,1.05973113 19.2557276,0.717882375 C18.8774901,0.4102185 18.4304821,0.20510925 17.9490889,0.20510925 L17.9490889,0.20510925 Z" id="XMLID_977_"></path>
                                <rect id="XMLID_976_" x="16.4361389" y="5.29865563" width="2.9571296" height="11.6570424"></rect>
                                <path d="M30.0870744,6.290017 C29.1930585,5.50376488 28.1958869,5.0593615 27.1299448,5.0593615 C25.5138391,5.0593615 24.13843,5.6063195 23.1068731,6.73442038 C22.0409311,7.82833638 21.5251526,9.22991625 21.5251526,10.9049751 C21.5251526,12.5458491 22.0409311,13.947429 23.0724879,15.0755299 C24.1040447,16.1694459 25.4794539,16.7164039 27.0955596,16.7164039 C28.2302721,16.7164039 29.1930585,16.40874 30.0183039,15.7934123 L30.0183039,16.0668913 C30.0183039,17.0240678 29.7432221,17.776135 29.2618289,18.2889081 C28.7460505,18.8016813 28.0239607,19.0751603 27.16433,19.0751603 C25.7889209,19.0751603 24.9636754,18.5282023 23.8977334,17.1608073 L21.9033902,19.0751603 L21.9721606,19.14353 C22.4191686,19.7588578 23.0724879,20.3400006 23.9321186,20.8869586 C24.7917493,21.4339166 25.9264618,21.7415805 27.1987152,21.7415805 C28.9523619,21.7415805 30.3621562,21.1946225 31.393713,20.1348914 C32.4252699,19.0751603 32.9754335,17.6393955 32.9754335,15.8959669 L32.9754335,5.29865563 L30.0870744,5.29865563 L30.0870744,6.290017 L30.0870744,6.290017 Z M29.2962141,13.1611769 C28.7804357,13.7423198 28.1271164,14.0157988 27.2674857,14.0157988 C26.407855,14.0157988 25.7545357,13.7423198 25.2731425,13.1611769 C24.7573641,12.580034 24.5166675,11.8279668 24.5166675,10.8707903 C24.5166675,9.91361375 24.7573641,9.1615465 25.2731425,8.58040363 C25.7889209,7.99926075 26.4422402,7.72578175 27.2674857,7.72578175 C28.1271164,7.72578175 28.7804357,7.99926075 29.2962141,8.58040363 C29.8119926,9.1615465 30.0526892,9.94779863 30.0526892,10.8707903 C30.0870744,11.8279668 29.8119926,12.580034 29.2962141,13.1611769 L29.2962141,13.1611769 Z" id="XMLID_973_"></path>
                                <rect id="XMLID_972_" x="35.4855552" y="5.29865563" width="2.9571296" height="11.6570424"></rect>
                                <path d="M36.9985052,0.20510925 C36.4827268,0.20510925 36.070104,0.376033625 35.7262518,0.717882375 C35.3823995,1.05973113 35.1760881,1.46994963 35.1760881,1.98272275 C35.1760881,2.49549588 35.3480143,2.90571438 35.6918665,3.281748 C36.0357188,3.62359675 36.4827268,3.79452113 36.9985052,3.79452113 C37.5142836,3.79452113 37.9269063,3.62359675 38.3051438,3.281748 C38.6489961,2.93989925 38.8209223,2.49549588 38.8209223,1.98272275 C38.8209223,1.46994963 38.6489961,1.05973113 38.3051438,0.717882375 C37.9269063,0.4102185 37.5142836,0.20510925 36.9985052,0.20510925 L36.9985052,0.20510925 Z" id="XMLID_971_"></path>
                                <path d="M44.9071076,2.15364713 L42.0187485,2.15364713 L42.0187485,5.29865563 L40.3338723,5.29865563 L40.3338723,7.96507588 L42.0187485,7.96507588 L42.0187485,12.7851433 C42.0187485,14.2892778 42.3282155,15.3831938 42.9127644,15.9985215 C43.5316985,16.6138493 44.5976405,16.955698 46.0762053,16.955698 C46.5575985,16.955698 47.0389917,16.955698 47.5203849,16.9215131 L47.6579258,16.9215131 L47.6579258,14.2550929 L46.6607542,14.3234626 C45.9730497,14.3234626 45.4916565,14.1867231 45.2509599,13.947429 C45.0102633,13.7081349 44.9071076,13.1953618 44.9071076,12.4091096 L44.9071076,7.99926075 L47.6579258,7.99926075 L47.6579258,5.3328405 L44.9071076,5.3328405 L44.9071076,2.15364713 L44.9071076,2.15364713 Z" id="XMLID_970_"></path>
                                <rect id="XMLID_969_" x="61.4807874" y="0.4102185" width="2.9571296" height="16.5454795"></rect>
                                <path d="M94.1811391,12.7851433 C93.6653607,13.3662861 93.1151971,13.8790593 92.7025743,14.1525383 L92.7025743,14.1525383 C92.2899516,14.4260173 91.7741732,14.5285719 91.1896243,14.5285719 C90.3299936,14.5285719 89.6079038,14.220908 89.0577402,13.5713954 C88.5075765,12.9218828 88.1981095,12.1014458 88.1981095,11.1100844 C88.1981095,10.118723 88.4731913,9.298286 89.023355,8.64877338 C89.5735186,7.99926075 90.2956084,7.69159688 91.1552391,7.69159688 C92.1180255,7.69159688 93.1151971,8.27273975 93.9748278,9.298286 L95.9347858,7.45230275 L95.9347858,7.45230275 C94.6625323,5.81142875 93.0464266,5.0593615 91.1208539,5.0593615 C89.5047481,5.0593615 88.0949538,5.64050438 86.9602413,6.80279013 C85.8255288,7.96507588 85.2409799,9.40084063 85.2409799,11.1442693 C85.2409799,12.8876979 85.8255288,14.3576475 86.9602413,15.4857484 C88.0949538,16.6480341 89.5047481,17.229177 91.1208539,17.229177 C93.252738,17.229177 94.9719994,16.3061854 96.1410971,14.6311265 L94.1811391,12.7851433 L94.1811391,12.7851433 Z" id="XMLID_968_"></path>
                                <path d="M106.284739,6.93952963 C105.872117,6.35838675 105.287568,5.8797985 104.599863,5.53794975 C103.912159,5.196101 103.086913,5.02517663 102.158512,5.02517663 C100.508021,5.02517663 99.1669972,5.64050438 98.1698256,6.80279013 C97.172654,7.99926075 96.6912608,9.46921038 96.6912608,11.1784541 C96.6912608,12.9560676 97.2414244,14.3918324 98.3073665,15.5199333 C99.3733085,16.6138493 100.817488,17.1949921 102.571135,17.1949921 C104.565478,17.1949921 106.181584,16.40874 107.419452,14.8362358 L107.488222,14.767866 L105.56265,12.9218828 L105.56265,12.9218828 C105.390723,13.126992 105.115642,13.3662861 104.90933,13.6055803 C104.634248,13.8790593 104.359167,14.0841685 104.0497,14.220908 C103.602692,14.4260173 103.121298,14.5627568 102.571135,14.5627568 C101.745889,14.5627568 101.09257,14.3234626 100.576792,13.8448744 C100.095398,13.400471 99.8203165,12.8193281 99.7515461,12.0672609 L107.556993,12.0672609 L107.591378,11.0075298 C107.591378,10.2554625 107.488222,9.53758013 107.281911,8.85388263 C107.006829,8.13600025 106.697362,7.5206725 106.284739,6.93952963 L106.284739,6.93952963 Z M99.8547017,9.67431963 C99.9922426,9.12736163 100.267324,8.64877338 100.611177,8.30692463 C101.023799,7.930891 101.539578,7.72578175 102.158512,7.72578175 C102.880602,7.72578175 103.430765,7.930891 103.809003,8.3411095 C104.152855,8.71714313 104.359167,9.1615465 104.393552,9.7085045 L99.8547017,9.7085045 L99.8547017,9.67431963 Z" id="XMLID_964_"></path>
                                <path d="M117.597479,6.18746238 L117.597479,6.18746238 C116.703463,5.43539513 115.465595,5.0593615 113.91826,5.0593615 C112.921088,5.0593615 112.027072,5.26447075 111.201827,5.67468925 C110.445352,6.05072288 109.688877,6.7002355 109.207484,7.55485738 L109.241869,7.58904225 L111.133056,9.40084063 C111.923917,8.17018513 112.783547,7.72578175 113.91826,7.72578175 C114.537194,7.72578175 115.052972,7.89670613 115.43121,8.20437 C115.809447,8.51203388 116.015759,8.92225238 116.015759,9.46921038 L116.015759,10.0503533 C115.293669,9.845244 114.571579,9.7085045 113.849489,9.7085045 C112.370925,9.7085045 111.201827,10.0503533 110.307811,10.7340508 C109.413795,11.4177483 108.966787,12.4091096 108.966787,13.6397651 C108.966787,14.7336811 109.345025,15.6224879 110.1015,16.2720005 C110.857975,16.9215131 111.820761,17.229177 112.955474,17.229177 C114.090186,17.229177 115.121743,16.7847736 116.084529,15.9985215 L116.084529,16.955698 L118.972888,16.955698 L118.972888,9.46921038 C118.938503,8.03344563 118.491495,6.93952963 117.597479,6.18746238 L117.597479,6.18746238 Z M112.370925,12.5116643 C112.714777,12.2723701 113.161785,12.1698155 113.780719,12.1698155 C114.502809,12.1698155 115.259284,12.306555 116.015759,12.580034 L116.015759,13.7081349 C115.36244,14.2892778 114.502809,14.5969416 113.471252,14.5969416 C112.955474,14.5969416 112.577236,14.494387 112.302154,14.2550929 C112.027072,14.0499836 111.889531,13.7765046 111.889531,13.400471 C111.889531,13.0244374 112.027072,12.7167735 112.370925,12.5116643 L112.370925,12.5116643 Z" id="XMLID_959_"></path>
                                <path d="M130.285628,6.39257163 C129.460383,5.46958 128.32567,5.02517663 126.847106,5.02517663 C125.678008,5.02517663 124.715221,5.36702538 124.027517,6.016538 L124.027517,5.29865563 L121.139158,5.29865563 L121.139158,16.955698 L124.096287,16.955698 L124.096287,10.5289415 C124.096287,9.64013475 124.302599,8.95643725 124.715221,8.44366413 C125.127844,7.930891 125.712393,7.69159688 126.468868,7.69159688 C127.122187,7.69159688 127.637966,7.89670613 128.016203,8.3411095 C128.394441,8.78551288 128.566367,9.40084063 128.566367,10.1870928 L128.566367,16.9215131 L131.523497,16.9215131 L131.523497,10.1870928 C131.523497,8.58040363 131.110874,7.31556325 130.285628,6.39257163 L130.285628,6.39257163 Z" id="XMLID_957_"></path>
                                <path d="M57.7671828,6.18746238 L57.7671828,6.18746238 C56.8731669,5.43539513 55.6352987,5.0593615 54.0879634,5.0593615 C53.0907918,5.0593615 52.1967759,5.26447075 51.3715304,5.67468925 C50.6150554,6.05072288 49.8585804,6.7002355 49.3771872,7.55485738 L49.4115724,7.58904225 L51.30276,9.40084063 C52.0936202,8.17018513 52.9532509,7.72578175 54.0879634,7.72578175 C54.7068975,7.72578175 55.222676,7.89670613 55.6009135,8.20437 C55.979151,8.51203388 56.1854623,8.92225238 56.1854623,9.46921038 L56.1854623,10.0503533 C55.4633726,9.845244 54.7412828,9.7085045 54.019193,9.7085045 C52.5406282,9.7085045 51.3715304,10.0503533 50.4775145,10.7340508 C49.5834986,11.4177483 49.1364906,12.4091096 49.1364906,13.6397651 C49.1364906,14.7336811 49.5147281,15.6224879 50.2712031,16.2720005 C51.0276782,16.9215131 51.9904645,17.229177 53.1251771,17.229177 C54.2598896,17.229177 55.2914464,16.7847736 56.2542328,15.9985215 L56.2542328,16.955698 L59.1425919,16.955698 L59.1425919,9.46921038 C59.1082067,8.03344563 58.6611987,6.93952963 57.7671828,6.18746238 L57.7671828,6.18746238 Z M52.5406282,12.5116643 C52.8844805,12.2723701 53.3314884,12.1698155 53.9504225,12.1698155 C54.6725123,12.1698155 55.4289873,12.306555 56.1854623,12.580034 L56.1854623,13.7081349 C55.532143,14.2892778 54.6725123,14.5969416 53.6409555,14.5969416 C53.1251771,14.5969416 52.7469396,14.494387 52.4718577,14.2550929 C52.1967759,14.0499836 52.059235,13.7765046 52.059235,13.400471 C52.059235,13.0244374 52.1967759,12.7167735 52.5406282,12.5116643 L52.5406282,12.5116643 Z" id="XMLID_954_"></path>
                                <path d="M75.0973377,17.1949921 C70.3865614,17.1949921 66.5354159,13.3662861 66.5354159,8.68295825 C66.5354159,3.99963038 70.3865614,0.170924375 75.0973377,0.170924375 C79.8081139,0.170924375 83.6592594,3.99963038 83.6592594,8.68295825 C83.6592594,13.3662861 79.8424991,17.1949921 75.0973377,17.1949921 L75.0973377,17.1949921 Z M75.0973377,3.1450085 C72.0370524,3.1450085 69.561316,5.6063195 69.561316,8.64877338 C69.561316,11.6912273 72.0370524,14.1525383 75.0973377,14.1525383 C78.1576229,14.1525383 80.6333594,11.6912273 80.6333594,8.64877338 C80.6333594,5.6063195 78.1576229,3.1450085 75.0973377,3.1450085 L75.0973377,3.1450085 Z" id="XMLID_752_"></path>
                            </g>
                        </g>
                    </g>
                </g>
            </g>
        </g>
    </g>
</svg>